<svg xmlns="http://www.w3.org/2000/svg" xmlns:xlink="http://www.w3.org/1999/xlink" width="190" height="100" viewBox="0 0 190 100">
  <defs>
    <clipPath id="clip-path">
      <path id="Tracé_37" data-name="Tracé 37" d="M0,23H75.243V-77H0Z" transform="translate(0 77)" fill="#62b2ef"/>
    </clipPath>
    <clipPath id="clip-_190x100_4">
      <rect width="190" height="100"/>
    </clipPath>
  </defs>
  <g id="_190x100_4" data-name="190x100_4" clip-path="url(#clip-_190x100_4)">
    <g id="logo" transform="translate(0 77)">
      <g id="Groupe_22" data-name="Groupe 22" transform="translate(0 -77)" clip-path="url(#clip-path)">
        <g id="Groupe_9" data-name="Groupe 9" transform="translate(18.309 32.821)">
          <path id="Tracé_24" data-name="Tracé 24" d="M1.662,3.385a20.962,20.962,0,0,0-7.2-3.951c-.069-.129.029-.192.084-.262A28.033,28.033,0,0,1-2.464-3.982,28.17,28.17,0,0,1,10.47-10.648a31.117,31.117,0,0,1,3.508-.551,27.123,27.123,0,0,1,4.147-.094,29.508,29.508,0,0,1,9.736,2.145,28.523,28.523,0,0,1,7.5,4.517,27.9,27.9,0,0,1,7.4,9.586,27.38,27.38,0,0,1,2.17,6.7c.184.987.318,1.981.408,2.982a28.544,28.544,0,0,1,.044,4.495,28.237,28.237,0,0,1-2.614,10.179A27.992,27.992,0,0,1,37.9,36.534a28.634,28.634,0,0,1-11.216,7.443c-.417.153-.838.295-1.258.435-.291.1-.316.071-.3-.214a26.586,26.586,0,0,1,.351-2.992A43.366,43.366,0,0,1,26.7,36.121a.857.857,0,0,1,.408-.521,19.93,19.93,0,0,0,6.465-6.625,23.051,23.051,0,0,0,2.908-7.205,21.553,21.553,0,0,0,.456-3.174A19.522,19.522,0,0,0,37,16.572a20.445,20.445,0,0,0-2.6-9.431A20.352,20.352,0,0,0,14.941-3.184a18.6,18.6,0,0,0-5.5,1.314A21.166,21.166,0,0,0,3.063,2.111c-.391.353-.765.726-1.147,1.088a.541.541,0,0,1-.255.186" transform="translate(5.564 11.331)" fill="#62b2ef"/>
        </g>
        <g id="Groupe_10" data-name="Groupe 10" transform="translate(11.567 51.949)">
          <path id="Tracé_25" data-name="Tracé 25" d="M0,2.281C.017.87.077-.382.206-1.627A21.917,21.917,0,0,1,1.526-7.286c.012-.031.023-.062.036-.092.11-.274.123-.281.395-.238A13.036,13.036,0,0,1,8.105-4.98c.336.264.644.565.969.843a.468.468,0,0,1,.161.562,12.64,12.64,0,0,0-.488,2.114c-.052.374-.116.749-.14,1.126C8.565.29,8.518.917,8.531,1.542c.016.822.043,1.645.132,2.466a21.064,21.064,0,0,0,.517,2.914A20.381,20.381,0,0,0,23.035,21.459a20.366,20.366,0,0,0,3.813.774c.575.061,1.149.079,1.726.1.114.005.23,0,.345.016a.137.137,0,0,1,.125.175,1.638,1.638,0,0,1-.043.192c-.335,1.377-.6,2.766-.806,4.168-.1.668-.158,1.34-.235,2.01-.031.278-.058.557-.091.835-.021.177-.061.217-.261.214-.643-.01-1.286-.014-1.927-.049-.509-.029-1.014-.1-1.522-.152a21.541,21.541,0,0,1-3.96-.8,27.965,27.965,0,0,1-7.675-3.56,27.992,27.992,0,0,1-6.5-5.952,27.517,27.517,0,0,1-4.881-9.364,26.721,26.721,0,0,1-.875-4.1A33.534,33.534,0,0,1,0,2.281" transform="translate(0 7.635)" fill="#62b2ef"/>
        </g>
        <g id="Groupe_11" data-name="Groupe 11" transform="translate(3.372 45.156)">
          <path id="Tracé_26" data-name="Tracé 26" d="M.012,1.222c-.074-.086-.047-.188-.047-.283q0-1.558,0-3.116a1.407,1.407,0,0,0,0-.148.288.288,0,0,1,.2-.3,13.674,13.674,0,0,1,1.658-.634A18.834,18.834,0,0,1,5.3-3.975a20.465,20.465,0,0,1,3.9-.045,21.51,21.51,0,0,1,5.618,1.255A21.869,21.869,0,0,1,19.9-.054c.8.558,1.542,1.182,2.29,1.8A16.4,16.4,0,0,0,25.1,3.691a6.945,6.945,0,0,0,2.253.686,8.416,8.416,0,0,0,2.456-.082c.927-.136,1.86-.235,2.792-.34.555-.064,1.113-.108,1.67-.161A2.9,2.9,0,0,1,35.725,4a1.614,1.614,0,0,1,.994,1.319c.078.521.127,1.045.187,1.569q.113,1.005.222,2.013a.78.78,0,0,0,.59.712q.612.191,1.221.394a4.082,4.082,0,0,1,.6.225,1.4,1.4,0,0,1,.822,1.449c-.04.492-.1.983-.144,1.475-.008.079,0,.161,0,.239.106.036.153-.04.212-.095a2.053,2.053,0,0,1,.919-.552,1.441,1.441,0,0,1,1.7.987,2.361,2.361,0,0,1,.073.635,8.133,8.133,0,0,0,.029.89,1.405,1.405,0,0,0,.784,1.178,4.54,4.54,0,0,0,1.749.481,4.449,4.449,0,0,1,1.519.4,2,2,0,0,1,1.2,1.842,3.235,3.235,0,0,1-.321,1.482c-.8,1.756-1.508,3.545-2.169,5.356a63.446,63.446,0,0,0-2.251,7.569c-.286,1.235-.575,2.469-.771,3.722q-.22,1.414-.358,2.84a33.034,33.034,0,0,0-.16,4.195,21.544,21.544,0,0,0,.984,6.123c.025.077.045.153.062.206a.158.158,0,0,1-.179.1q-1.58,0-3.162,0c-.255,0-.279-.016-.352-.255a20.659,20.659,0,0,1-.622-2.591,27.93,27.93,0,0,1-.383-5.709q.058-1.652.251-3.3c.17-1.44.408-2.866.7-4.287.332-1.63.749-3.239,1.225-4.832a62.543,62.543,0,0,1,2.636-7.235c.158-.362.322-.722.479-1.084a1.744,1.744,0,0,0,.143-.771.645.645,0,0,0-.566-.7c-.368-.084-.743-.14-1.114-.209a1.766,1.766,0,0,1-1.21-.691,2.155,2.155,0,0,1-.342-1.555q.049-.392.078-.787c.036-.5-.243-.851-.851-.619-.183.07-.36.16-.539.244a1.634,1.634,0,0,1-.662.178.72.72,0,0,1-.83-.661c-.047-.275-.07-.556-.1-.834-.036-.327-.062-.656-.106-.982a.728.728,0,0,0-.681-.719c-.482-.1-.966-.2-1.447-.306a1.713,1.713,0,0,1-1.33-1.062,1.524,1.524,0,0,1-.106-.43q-.1-1.282-.205-2.561c-.025-.295-.047-.591-.088-.884a.854.854,0,0,0-.866-.786,1.983,1.983,0,0,0-.538.056c-1.009.238-2.035.391-3.06.545-.178.026-.355.066-.534.094a8.93,8.93,0,0,1-5.014-.7,18.485,18.485,0,0,1-3.905-2.4c-.506-.4-.994-.814-1.488-1.223a20.057,20.057,0,0,0-4.412-2.7A13.465,13.465,0,0,0,10.681-.015,18.152,18.152,0,0,0,6.444-.165,22.294,22.294,0,0,0,.338,1.151c-.105.039-.2.114-.326.071" transform="translate(0.04 4.092)" fill="#62b2ef"/>
        </g>
      </g>
    </g>
  </g>
</svg>
